<svg width="24" height="24" viewBox="0 0 24 24" fill="none" xmlns="http://www.w3.org/2000/svg">
<path d="M10.4149 5.39843L11.1045 6.63405C11.7268 7.74913 11.477 9.21191 10.4969 10.1921C10.4969 10.1921 9.30812 11.381 11.4635 13.5365C13.6183 15.6912 14.808 14.5032 14.808 14.5032C15.7881 13.523 17.2509 13.2732 18.366 13.8955L19.6015 14.5851C21.2854 15.5248 21.4842 17.8861 20.0042 19.3661C19.1149 20.2554 18.0254 20.9474 16.8211 20.993C14.7937 21.07 11.3507 20.5569 7.89693 17.1031C4.4432 13.6493 3.9301 10.2063 4.00696 8.17892C4.05262 6.97458 4.7446 5.88512 5.63392 4.99581C7.11393 3.5158 9.47524 3.71465 10.4149 5.39843Z" fill="white"/>
</svg>
